<svg width="644" height="644" viewBox="0 0 644 644" fill="none" xmlns="http://www.w3.org/2000/svg">
<g clip-path="url(#clip0_6_850)">
<path d="M118.832 0.517583C119.531 0.448083 120.178 0.415576 120.883 0.404576C151.081 -0.0579242 181.431 0.22908 211.636 0.20258L388.822 0.167576L474.652 0.164586C495.412 0.123086 524.967 -0.937426 544.557 2.90857C567.137 7.46757 587.952 18.3666 604.562 34.3286C628.692 57.0746 642.987 89.6951 643.317 122.665C643.622 153.449 643.422 184.52 643.412 215.329L643.402 392.534L643.392 483.119C643.387 501.904 644.177 530.399 640.877 548.164C636.652 570.109 626.222 590.384 610.827 606.584C586.677 631.864 558.792 642.609 524.192 643.359C489.642 644.304 452.572 643.714 417.857 643.674L251.499 643.704L160.967 643.669C140.965 643.674 118.02 644.529 98.4419 641.644C46.2899 633.959 3.66536 585.964 0.947356 533.484C0.353856 522.029 0.22286 511.249 0.19786 499.709L0.188369 451.434L0.16487 298.628L0.124862 176.362C0.146362 157.117 -0.786636 122.171 2.14036 104.341C5.69836 82.0101 15.3469 61.0926 30.0244 43.8906C53.5439 16.3756 83.2334 3.28258 118.832 0.517583Z" fill="#DEDDDD"/>
<path d="M129.166 2.54758C136.689 2.13608 144.862 2.34458 152.433 2.33058C174.131 2.29008 195.833 2.32957 217.532 2.33357L382.727 2.33658L473.132 2.32658C493.172 2.31608 521.222 1.42808 540.322 4.95158C563.307 8.96658 584.632 19.5756 601.702 35.4891C628.867 60.5976 640.342 93.4941 641.162 129.699C641.412 140.766 641.337 151.852 641.337 162.921L641.327 218.421L641.322 386.994L641.327 478.989C641.327 499.424 642.347 525.744 638.802 545.354C634.817 567.309 624.602 587.654 609.377 603.964C582.382 632.844 554.092 640.124 516.282 641.254L238.26 641.304L158.149 641.314C140.986 641.309 114.92 641.959 98.4644 638.969C76.9449 635.194 56.9799 625.269 40.9834 610.389C14.5669 585.874 3.12636 555.854 2.58586 520.494C2.13236 490.809 2.32087 460.959 2.32187 431.274L2.33037 266.626L2.33336 173.676C2.34636 125.139 -1.04914 80.4161 35.5359 42.0896C62.3764 13.9711 90.9064 3.94558 129.166 2.54758Z" fill="white"/>
<path d="M322.207 267.328C323.312 267.572 325.787 268.125 326.622 268.764C335.052 275.216 343.372 284.565 350.797 292.142L351.267 292.594C357.607 298.933 374.592 313.654 375.952 321.334L375.942 322.354C375.702 324.019 375.417 325.939 374.312 327.269C368.042 334.789 360.202 342.129 353.217 349.109C344.852 357.459 336.552 366.494 327.597 374.084C325.937 375.494 324.357 375.864 322.277 376.199L322.367 400.004C322.377 402.679 322.502 410.334 322.052 412.649C327.142 417.799 337.412 427.374 341.672 432.294C346.502 430.939 351.442 429.714 356.217 428.394C359.647 427.444 360.032 426.279 364.492 425.699L364.762 426.134C357.932 428.389 353.437 430.029 346.342 431.799C354.647 432.319 364.007 432.354 372.307 432.164L373.132 432.989C393.462 453.049 413.832 468.829 423.832 496.334L424.082 497.469C419.312 499.399 411.457 504.234 405.987 506.824C413.252 527.719 411.432 544.874 411.427 566.859H392.467C392.547 551.419 394.157 527.784 388.587 513.944L388.242 512.824C382.392 497.249 369.162 486.284 357.452 474.739L356.802 473.999C345.377 463.169 333.642 451.004 322.452 439.819L321.347 438.679C319.402 436.649 317.277 434.809 315.177 432.939C312.022 433.669 274.682 433.344 270.19 433.064L271.477 431.754L277.786 425.364L278.348 424.619L284.95 417.954C280.902 413.859 276.039 408.674 271.885 404.824L244.443 432.459L243.34 433.449C235.376 432.789 220.871 433.284 212.307 433.259C215.212 436.449 220.677 441.109 224.015 444.184L223.771 444.344L224.294 444.709L224.127 444.384L223.862 444.489C218.78 440.724 215.682 437.954 211.369 433.344C211.372 441.549 211.874 461.774 210.989 469.189C208.824 463.844 211.805 438.099 209.583 434.839C208.718 435.484 209.177 435.259 208.228 435.554L208.97 433.964L208.76 433.514C201.446 432.229 181.152 434.434 174.956 432.729C141.984 452.329 113.373 448.829 76.6504 448.814C76.5614 442.539 76.5659 436.269 76.6634 429.994C101.045 429.834 124.213 432.024 147.614 424.939C144.559 420.014 139.446 412.004 137.955 406.644L138.395 406.174C151.898 402.609 165.963 388.544 175.339 378.909L176.083 378.074C187.363 367.719 199.248 354.659 210.207 343.694L212.303 341.524C218.686 335.114 225.023 328.659 231.317 322.164L232.397 321.179C243.595 321.669 256.332 321.259 267.737 321.394C268.173 315.154 277.748 307.1 282.239 302.732C293.383 291.894 303.891 280.319 315.462 269.975C317.252 268.375 319.067 267.907 321.372 267.581L322.207 267.328Z" fill="white"/>
<path d="M268.579 359.139C284.517 376.199 304.494 395.444 321.187 411.879L322.052 412.649C327.142 417.799 337.412 427.374 341.672 432.294C346.502 430.939 351.442 429.714 356.217 428.394C359.647 427.444 360.032 426.279 364.492 425.699L364.762 426.134C357.932 428.389 353.437 430.029 346.342 431.799C354.647 432.319 364.007 432.354 372.307 432.164L373.132 432.989C393.462 453.049 413.832 468.829 423.832 496.334L424.082 497.469C419.312 499.399 411.457 504.234 405.987 506.824C413.252 527.719 411.432 544.874 411.427 566.859H392.467C392.547 551.419 394.157 527.784 388.587 513.944L388.242 512.824C382.392 497.249 369.162 486.284 357.452 474.739L356.802 473.999C345.377 463.169 333.642 451.004 322.452 439.819L321.347 438.679C319.402 436.649 317.277 434.809 315.177 432.939L314.397 432.154C295.263 412.314 274.667 392.274 255.102 372.769C259.502 368.139 263.996 363.594 268.579 359.139Z" fill="black"/>
<path d="M341.672 432.294C346.502 430.939 351.442 429.714 356.217 428.394C359.647 427.444 360.032 426.279 364.492 425.699L364.762 426.134C357.932 428.389 353.437 430.029 346.342 431.799C354.647 432.319 364.007 432.354 372.307 432.164L373.132 432.989C393.462 453.049 413.832 468.829 423.832 496.334L424.082 497.469C419.312 499.399 411.457 504.234 405.987 506.824L405.567 506.334C405.117 503.419 401.302 496.559 399.772 494.014C393.007 482.749 382.957 473.604 373.692 464.384L342.412 433.089L341.672 432.294Z" fill="white"/>
<path d="M341.672 432.294C346.502 430.939 351.442 429.714 356.217 428.394C359.647 427.444 360.032 426.279 364.492 425.699L364.762 426.134C357.932 428.389 353.437 430.029 346.342 431.799C354.647 432.319 364.007 432.354 372.307 432.164L373.132 432.989C363.662 433.304 351.952 433.484 342.412 433.089L341.672 432.294Z" fill="#B7B6B7"/>
<path d="M423.832 496.334L424.082 497.469C419.312 499.399 411.457 504.234 405.987 506.824L405.567 506.334C408.192 504.414 420.637 497.924 423.832 496.334Z" fill="#DEDDDD"/>
<path d="M397.417 458.889L397.772 459.334C396.097 460.909 391.817 462.754 389.582 463.839L389.142 463.384C390.177 462.199 395.652 459.749 397.417 458.889Z" fill="#B7B6B7"/>
<path d="M386.592 464.319L387.247 464.534C386.087 465.849 383.552 466.604 381.757 467.354C381.532 467.354 381.702 467.384 381.132 467.059C382.432 465.894 384.907 465.029 386.592 464.319Z" fill="#B7B6B7"/>
<path d="M322.207 267.328C323.312 267.572 325.787 268.125 326.622 268.764C335.052 275.216 343.372 284.565 350.797 292.142L351.267 292.594C357.607 298.933 374.592 313.654 375.952 321.334L375.942 322.354C375.702 324.019 375.417 325.939 374.312 327.269C368.042 334.789 360.202 342.129 353.217 349.109C344.852 357.459 336.552 366.494 327.597 374.084C325.937 375.494 324.357 375.864 322.277 376.199L321.332 376.154C316.292 375.764 311.092 369.974 307.639 366.424C295.243 353.664 282.062 341.529 270.124 328.354C268.526 326.594 267.961 324.559 267.506 322.289L267.737 321.394C268.173 315.154 277.748 307.1 282.239 302.732C293.383 291.894 303.891 280.319 315.462 269.975C317.252 268.375 319.067 267.907 321.372 267.581L322.207 267.328Z" fill="#5880F1"/>
<path d="M247.493 338.064C251.873 342.329 256.191 346.664 260.446 351.054C246.009 366.124 226.224 386.504 211.031 400.744L210.15 401.759C198.071 413.864 190.228 422.559 175.835 432.239L174.956 432.729C141.984 452.329 113.373 448.829 76.6504 448.814C76.5614 442.539 76.5659 436.269 76.6634 429.994C101.045 429.834 124.213 432.024 147.614 424.939L148.697 424.664C172.269 415.954 183.637 401.904 200.738 384.759C216.241 369.109 231.826 353.544 247.493 338.064Z" fill="black"/>
<path d="M210.15 401.759C210.319 405.869 210.958 428.984 209.646 431.239L209.184 432.109C203.276 432.184 180.695 432.794 175.835 432.239C190.228 422.559 198.071 413.864 210.15 401.759Z" fill="white"/>
<path d="M196.738 416.814C198.202 417.409 208.603 429.594 209.646 431.239C207.328 429.899 197.353 419.294 196.738 416.814Z" fill="#B7B6B7"/>
<path d="M210.15 401.759L211.031 400.744C211.856 406.899 211.349 424.479 211.286 431.644C215.947 426.969 237.983 403.759 242.119 401.519C239.659 404.769 232.752 411.419 229.436 414.634C223.686 420.209 217.455 426.909 211.627 432.254C219.628 432.219 237.183 431.789 244.443 432.459L243.34 433.449C235.376 432.789 220.871 433.284 212.307 433.259C215.212 436.449 220.677 441.109 224.015 444.184L223.771 444.344L224.294 444.709L224.127 444.384L223.862 444.489C218.78 440.724 215.682 437.954 211.369 433.344C211.372 441.549 211.874 461.774 210.989 469.189C208.824 463.844 211.805 438.099 209.583 434.839C208.718 435.484 209.177 435.259 208.228 435.554L208.97 433.964L208.76 433.514C201.446 432.229 181.152 434.434 174.956 432.729L175.835 432.239C180.695 432.794 203.276 432.184 209.184 432.109L209.646 431.239C210.958 428.984 210.319 405.869 210.15 401.759Z" fill="#A6A5A7"/>
<path d="M278.348 424.619C289.435 429.794 302.132 432.759 314.397 432.154L315.177 432.939C312.022 433.669 274.682 433.344 270.19 433.064L271.477 431.754L277.786 425.364L278.348 424.619Z" fill="white"/>
<path d="M278.348 424.619C289.435 429.794 302.132 432.759 314.397 432.154L315.177 432.939C312.022 433.669 274.682 433.344 270.19 433.064L271.477 431.754C272.671 432.384 297.986 432.554 301.672 432.744C291.772 429.879 287.86 429.719 277.786 425.364L278.348 424.619Z" fill="#B7B6B7"/>
<path d="M261.528 381.149L262.306 380.914L262.346 381.524C258.719 385.514 247.046 397.909 243.115 401.239C247.631 405.434 251.765 408.859 256.525 412.764L256.196 412.889C252.321 411.189 245.295 404.634 242.119 401.519C238.737 398.674 232.885 391.404 230.31 387.754L230.682 387.549L230.182 387.554L230.037 386.874C234.965 391.189 237.941 396.139 242.503 400.619C248.775 394.319 255.589 387.699 261.528 381.149Z" fill="#B7B6B7"/>
<path d="M232.397 321.179C243.595 321.669 256.332 321.259 267.737 321.394L267.506 322.289C256.764 322.464 241.84 322.744 231.317 322.164L232.397 321.179Z" fill="#B7B6B7"/>
<path d="M321.332 376.154L322.277 376.199L322.367 400.004C322.377 402.679 322.502 410.334 322.052 412.649L321.187 411.879C321.867 404.044 321.337 384.894 321.332 376.154Z" fill="#A6A5A7"/>
<path d="M210.207 343.694L212.303 341.524C213.87 351.074 215.095 355.304 218.04 364.554C215.587 363.079 213.559 352.114 212.387 349.159L211.258 349.199C210.979 347.534 210.679 345.874 210.36 344.219L210.207 343.694Z" fill="#B7B6B7"/>
<path d="M210.36 344.219C210.679 345.874 210.979 347.534 211.258 349.199C211.524 356.899 211.29 365.234 211.131 372.939L210.88 373.024C210.181 369.374 209.909 348.124 210.36 344.219Z" fill="#A6A5A7"/>
<path d="M175.339 378.909L176.083 378.074C178.627 385.439 180.908 390.289 184.047 397.389C181.057 394.339 176.984 383.314 175.339 378.909Z" fill="#A6A5A7"/>
<path d="M137.955 406.644L138.395 406.174C140.39 410.499 145.322 421.529 148.697 424.664L147.614 424.939C144.559 420.014 139.446 412.004 137.955 406.644Z" fill="#A6A5A7"/>
<path d="M291.516 351.709L291.736 352.634C290.481 354.589 279.611 365.029 277.219 367.214C277.21 367.154 277.191 367.099 277.194 367.044C277.292 364.484 289.113 353.984 291.516 351.709Z" fill="#DEDDDD"/>
<path d="M512.947 254.16L513.642 253.828C520.152 275.15 525.917 298.853 525.347 321.334L551.467 321.339C555.132 321.339 562.387 321.149 565.667 321.679V322.009C562.367 322.549 554.952 322.349 551.262 322.349L525.352 322.344C525.517 338.629 520.522 375.444 513.202 389.619C517.752 390.404 522.362 392.399 527.817 392.794C540.472 393.709 554.117 393.349 566.852 393.319V412.214C536.502 412.314 510.552 415.549 485.362 394.954C476.402 387.624 468.957 379.684 460.847 371.529L433.937 344.779C432.852 343.539 433.152 344.229 432.902 342.684C433.152 339.074 434.172 329.669 433.092 326.894L437.562 322.304L438.782 321.169C450.162 309.679 462.637 296.531 474.337 285.582L474.602 285.247C485.562 273.451 498.122 260.22 512.947 254.16Z" fill="white"/>
<path d="M445.862 329.854L476.712 360.794C482.852 366.969 491.057 375.674 497.792 380.749C502.367 384.194 507.362 387.049 512.657 389.234L513.202 389.619C517.752 390.404 522.362 392.399 527.817 392.794C540.472 393.709 554.117 393.349 566.852 393.319V412.214C536.502 412.314 510.552 415.549 485.362 394.954C476.402 387.624 468.957 379.684 460.847 371.529L433.937 344.779C432.852 343.539 433.152 344.229 432.902 342.684C437.292 338.479 441.617 334.199 445.862 329.854Z" fill="black"/>
<path d="M474.602 285.247C485.562 273.451 498.122 260.22 512.947 254.16C519.687 278.455 524.487 295.224 524.347 321.329L479.337 321.304C479.417 314.114 477.937 290.672 474.602 285.247Z" fill="white"/>
<path d="M438.782 321.169C450.162 309.679 462.637 296.531 474.337 285.582C477.142 299.557 478.047 307.079 478.417 321.314C468.817 321.329 447.402 321.934 438.782 321.169Z" fill="white"/>
<path d="M512.947 254.16L513.642 253.828C520.152 275.15 525.917 298.853 525.347 321.334L551.467 321.339C555.132 321.339 562.387 321.149 565.667 321.679V322.009C562.367 322.549 554.952 322.349 551.262 322.349L525.352 322.344C525.517 338.629 520.522 375.444 513.202 389.619L512.657 389.234C520.347 367.769 524.297 345.144 524.337 322.339H479.407C479.467 335.449 478.107 344.489 475.687 357.129L475.137 357.374C475.022 355.739 475.622 352.819 475.942 351.059C477.717 341.419 478.252 332.134 478.452 322.359L437.562 322.304L438.782 321.169C447.402 321.934 468.817 321.329 478.417 321.314C478.047 307.079 477.142 299.557 474.337 285.582L474.602 285.247C477.937 290.672 479.417 314.114 479.337 321.304L524.347 321.329C524.487 295.224 519.687 278.455 512.947 254.16Z" fill="#A6A5A7"/>
<path d="M76.6789 231.426C98.3909 231.37 117.136 229.254 137.429 236.675L138.452 236.99C155.552 244.843 161.914 251.161 174.895 264.21C186.423 275.799 198.484 288.945 210.55 299.832L211.154 300.806L210.588 301.339C210.566 304.052 210.326 315.044 210.673 316.734C209.074 318.294 207.596 319.754 206.061 321.384L204.896 322.494C193.925 333.539 180.231 348.134 169.041 358.499C157.765 370.749 146.689 382.709 131.225 389.269L130.577 389.859C122.439 371.824 118.745 341.809 118.274 322.324C109.289 322.319 85.2689 322.944 77.8104 321.809C78.9914 321.094 113.836 321.339 118.283 321.344C117.955 302.098 123.155 271.711 130.48 253.918C113.846 248.52 94.5319 250.203 76.6884 250.272C76.6109 243.99 76.6079 237.708 76.6789 231.426Z" fill="white"/>
<path d="M76.6789 231.426C98.3909 231.37 117.136 229.254 137.429 236.675L138.452 236.99C155.552 244.843 161.914 251.161 174.895 264.21C186.423 275.799 198.484 288.945 210.55 299.832L211.154 300.806L210.588 301.339C206.073 305.761 202.972 309.543 197.973 314.089C186.663 303.312 175.939 291.673 164.699 280.799C154.866 271.284 144.491 258.786 131.14 254.325L130.48 253.918C113.846 248.52 94.5319 250.203 76.6884 250.272C76.6109 243.99 76.6079 237.708 76.6789 231.426Z" fill="black"/>
<path d="M119.354 322.364L164.26 322.319C164.196 330.599 165.567 351.309 169.041 358.499C157.765 370.749 146.689 382.709 131.225 389.269C130.198 387.304 128.588 381.909 127.894 379.654C122.282 361.074 119.405 341.774 119.354 322.364Z" fill="white"/>
<path d="M165.283 322.374C176.858 322.334 193.736 321.809 204.896 322.494C193.925 333.539 180.231 348.134 169.041 358.499C169.135 356.564 167.142 346.689 166.74 343.924C165.602 336.079 165.293 330.224 165.283 322.374Z" fill="white"/>
<path d="M130.48 253.918L131.14 254.325C123.258 275.041 119.475 299.179 119.35 321.324L164.245 321.329C164.234 314.254 165.937 291.642 168.607 285.908C169.269 288.267 167.401 294.527 166.996 297.308C165.8 305.52 165.39 313.039 165.303 321.299C178.751 321.309 192.637 321.154 206.061 321.384L204.896 322.494C193.736 321.809 176.858 322.334 165.283 322.374C165.293 330.224 165.602 336.079 166.74 343.924C167.142 346.689 169.135 356.564 169.041 358.499C165.567 351.309 164.196 330.599 164.26 322.319L119.354 322.364C119.405 341.774 122.282 361.074 127.894 379.654C128.588 381.909 130.198 387.304 131.225 389.269L130.577 389.859C122.439 371.824 118.745 341.809 118.274 322.324C109.289 322.319 85.2689 322.944 77.8104 321.809C78.9914 321.094 113.836 321.339 118.283 321.344C117.955 302.098 123.155 271.711 130.48 253.918Z" fill="#A6A5A7"/>
<path d="M241.791 241.809C246.268 239.62 250.465 233.114 255.337 231.207C257.426 230.39 257.744 228.778 260.042 228.286L260.072 228.923C256.707 232.099 256.209 231.442 253.12 233.832C249.771 236.425 246.564 239.608 243.116 242.265C248.422 247.633 258.821 257.65 263.251 263.185L271.756 254.615L285.089 267.881C274.36 278.554 263.722 289.318 253.175 300.173C246.53 306.879 238.723 314.374 232.397 321.179L231.317 322.164C225.023 328.659 218.686 335.114 212.303 341.524L210.207 343.694C199.248 354.659 187.363 367.719 176.083 378.074L175.339 378.909C165.963 388.544 151.898 402.609 138.395 406.174L137.955 406.644C119.907 414.199 96.5059 412.254 76.6914 412.169C76.6189 405.889 76.6264 399.609 76.7134 393.324C89.5524 393.349 102.512 393.569 115.329 393.049C120.19 392.849 125.705 390.229 130.577 389.859L131.225 389.269C146.689 382.709 157.765 370.749 169.041 358.499C180.231 348.134 193.925 333.539 204.896 322.494L206.061 321.384C207.596 319.754 209.074 318.294 210.673 316.734C210.326 315.044 210.566 304.052 210.588 301.339L211.154 300.806L210.55 299.832C210.482 289.924 209.927 278.589 210.738 268.802L211.468 269.763L226.456 284.706C230.757 280.613 235.293 275.862 239.514 271.619C235.736 267.592 231.888 263.632 227.971 259.739C229.185 255.643 240.293 245.226 241.791 241.809Z" fill="black"/>
<path d="M241.791 241.809C246.268 239.62 250.465 233.114 255.337 231.207C257.426 230.39 257.744 228.778 260.042 228.286L260.072 228.923C256.707 232.099 256.209 231.442 253.12 233.832C249.771 236.425 246.564 239.608 243.116 242.265C248.422 247.633 258.821 257.65 263.251 263.185L262.742 263.62L211.963 315.194L210.673 316.734C210.326 315.044 210.566 304.052 210.588 301.339L211.154 300.806L210.55 299.832C210.482 289.924 209.927 278.589 210.738 268.802L211.468 269.763L226.456 284.706C230.757 280.613 235.293 275.862 239.514 271.619C235.736 267.592 231.888 263.632 227.971 259.739C229.185 255.643 240.293 245.226 241.791 241.809Z" fill="white"/>
<path d="M241.791 241.809C246.268 239.62 250.465 233.114 255.337 231.207C257.426 230.39 257.744 228.778 260.042 228.286L260.072 228.923C256.707 232.099 256.209 231.442 253.12 233.832C249.771 236.425 246.564 239.608 243.116 242.265C248.422 247.633 258.821 257.65 263.251 263.185L262.742 263.62L242.494 242.977C239.616 246.08 229.698 258.701 227.971 259.739C229.185 255.643 240.293 245.226 241.791 241.809Z" fill="#B7B6B7"/>
<path d="M210.738 268.802L211.468 269.763C210.947 277.755 211.267 291.712 211.854 299.802C213.165 293.019 214.453 284.401 218.264 278.616C216.369 285.873 208.774 307.884 211.963 315.194L210.673 316.734C210.326 315.044 210.566 304.052 210.588 301.339L211.154 300.806L210.55 299.832C210.482 289.924 209.927 278.589 210.738 268.802Z" fill="#A6A5A7"/>
<path d="M321.347 438.679L322.452 439.819C333.642 451.004 345.377 463.169 356.802 473.999L357.452 474.739C369.162 486.284 382.392 497.249 388.242 512.824L388.587 513.944C385.552 514.544 381.732 515.829 378.727 516.774C360.117 522.624 341.832 524.744 322.357 525.289C322.357 535.149 322.977 557.344 322.002 566.479C320.717 563.444 321.272 531.149 321.277 525.234C301.172 524.569 273.519 521.314 255.026 513.174L255.442 512.704C262.532 496.184 273.689 487.449 286.123 474.789L287.335 473.699C293.62 476.984 313.582 478.334 321.277 478.299C321.232 465.094 321.257 451.884 321.347 438.679Z" fill="white"/>
<path d="M322.357 479.359C332.687 479.479 347.622 477.164 357.452 474.739C369.162 486.284 382.392 497.249 388.242 512.824C367.092 520.374 344.807 524.249 322.347 524.294L322.357 479.359Z" fill="white"/>
<path d="M322.452 439.819C333.642 451.004 345.377 463.169 356.802 473.999C346.792 476.804 332.862 478.324 322.357 478.304C322.302 465.474 322.332 452.649 322.452 439.819Z" fill="white"/>
<path d="M321.347 438.679L322.452 439.819C322.332 452.649 322.302 465.474 322.357 478.304C332.862 478.324 346.792 476.804 356.802 473.999L357.452 474.739C347.622 477.164 332.687 479.479 322.357 479.359L322.347 524.294C344.807 524.249 367.092 520.374 388.242 512.824L388.587 513.944C385.552 514.544 381.732 515.829 378.727 516.774C360.117 522.624 341.832 524.744 322.357 525.289C322.357 535.149 322.977 557.344 322.002 566.479C320.717 563.444 321.272 531.149 321.277 525.234C301.172 524.569 273.519 521.314 255.026 513.174L255.442 512.704C271.574 519.759 303.696 524.324 321.262 524.319C321.427 509.434 321.267 494.254 321.262 479.349C308.204 479.179 298.77 477.554 286.123 474.789L287.335 473.699C293.62 476.984 313.582 478.334 321.277 478.299C321.232 465.094 321.257 451.884 321.347 438.679Z" fill="#A6A5A7"/>
<path d="M321.307 118.332C321.302 112.249 320.697 80.4221 322.017 77.1336C322.927 87.6556 322.332 107.241 322.327 118.304C339.777 119.079 356.387 120.399 373.187 125.275C374.867 125.762 378.557 126.828 380.207 126.884L380.122 128.312C377.782 141.376 374.617 149.832 365.952 160.21C364.792 161.604 358.852 167.931 358.212 168.83L357.327 169.457C350.002 165.905 330.892 165.567 322.362 164.754C322.357 177.183 322.767 192.307 322.272 204.51L321.352 203.733C311.182 192.874 297.199 179.794 286.341 169.147L285.856 168.711C272.512 155.54 266.708 146.486 263.67 128.136C263.483 127.312 263.358 125.697 263.258 124.794L264.081 126.648C265.752 126.778 279.619 122.774 282.866 122.167C296.079 119.694 307.936 119.006 321.307 118.332Z" fill="white"/>
<path d="M263.67 128.136C280.978 122.156 302.959 119.499 321.292 119.325L321.312 164.198C310.022 164.385 296.603 165.503 285.856 168.711C272.512 155.54 266.708 146.486 263.67 128.136Z" fill="white"/>
<path d="M286.341 169.147C300.458 166.014 307.426 165.951 321.247 164.786C321.272 176.969 320.892 191.727 321.352 203.733C311.182 192.874 297.199 179.794 286.341 169.147Z" fill="white"/>
<path d="M321.307 118.332C321.302 112.249 320.697 80.4221 322.017 77.1336C322.927 87.6556 322.332 107.241 322.327 118.304C339.777 119.079 356.387 120.399 373.187 125.275C374.867 125.762 378.557 126.828 380.207 126.884L380.122 128.312C369.722 122.832 334.332 119.084 322.347 119.341L322.322 164.23C330.097 164.274 352.312 165.44 358.212 168.83L357.327 169.457C350.002 165.905 330.892 165.567 322.362 164.754C322.357 177.183 322.767 192.307 322.272 204.51L321.352 203.733C320.892 191.727 321.272 176.969 321.247 164.786C307.426 165.951 300.458 166.014 286.341 169.147L285.856 168.711C296.603 165.503 310.022 164.385 321.312 164.198L321.292 119.325C302.959 119.499 280.978 122.156 263.67 128.136C263.483 127.312 263.358 125.697 263.258 124.794L264.081 126.648C265.752 126.778 279.619 122.774 282.866 122.167C296.079 119.694 307.936 119.006 321.307 118.332Z" fill="#A6A5A7"/>
<path d="M434.562 299.025C448.947 285.514 463.782 268.84 478.147 255.081C506.857 227.575 531.182 231.335 566.847 231.42L566.842 250.259C548.822 250.215 530.607 248.539 513.642 253.828L512.947 254.16C498.122 260.22 485.562 273.451 474.602 285.247L474.337 285.582C462.637 296.531 450.162 309.679 438.782 321.169L437.562 322.304L433.092 326.894L432.182 327.944C411.937 348.179 391.827 368.549 371.857 389.054L358.672 375.859C375.017 358.419 394.267 339.734 411.167 322.464L412.212 321.529C418.622 314.954 425.202 308.585 431.537 301.924L434.562 299.025Z" fill="black"/>
<path d="M244.65 76.7461C250.834 76.6501 257.02 76.6381 263.204 76.7091L263.258 124.794C263.358 125.697 263.483 127.312 263.67 128.136C266.708 146.486 272.512 155.54 285.856 168.711L286.341 169.147C297.199 179.794 311.182 192.874 321.352 203.733L322.272 204.51C343.852 226.914 367.802 248.996 388.732 271.149L375.192 284.701C364.667 273.859 354.022 263.138 343.247 252.54C336.947 246.25 328.877 237.712 322.437 231.857L321.447 230.867C316.507 226.546 307.729 217.07 302.671 212.095L300.818 210.178C290.113 198.872 277.582 187.011 266.448 175.887L265.754 175.177C255.309 163.829 248.401 149.679 245.879 134.463L245.56 132.473C243.855 116.347 244.365 93.3786 244.65 76.7461Z" fill="black"/>
<path d="M485.657 202.401C512.957 193.125 538.467 194.374 566.842 195L566.877 213.568C530.292 214.101 495.917 208.691 466.417 235.625C455.117 245.942 444.462 258.213 433.237 268.622L432.127 269.754C420.227 281.615 408.747 294.096 396.497 305.619L383.312 292.407C392.587 282.759 407.077 269.735 415.262 260.198L415.957 259.706C426.272 249.319 436.607 238.548 447.167 228.454L447.917 227.685C454.977 220.675 459.732 216.861 467.842 211.482L468.987 210.794C473.772 207.468 479.702 204.984 485.052 202.643L485.657 202.401Z" fill="black"/>
<path d="M337.647 397.304C341.902 392.944 346.687 388.374 350.792 384.004L394.022 427.274C399.797 433.069 408.952 442.859 414.807 448.089L415.102 448.369C452.097 488.824 447.892 516.164 447.827 566.849L429.032 566.859C429.377 544.979 430.757 517.924 424.082 497.469L423.832 496.334C413.832 468.829 393.462 453.049 373.132 432.989L372.307 432.164C361.062 420.474 348.637 409.099 337.647 397.304Z" fill="black"/>
<path d="M208.693 76.7056C214.738 76.6836 220.996 76.5841 227.018 76.6966L226.972 111.082C226.977 138.608 227.326 159.312 244.503 183.171C249.482 190.088 260.705 200.846 267.109 207.208C280.017 220.032 292.976 233.745 306.081 246.284L293.033 259.773L260.56 227.305C256.205 222.932 248.621 215.774 244.701 211.307L243.745 210.419C239.085 205.268 234.684 200.951 230.467 195.387L230.077 194.628C209.622 167.513 208.621 143.934 208.62 111.802L208.693 76.7056Z" fill="black"/>
<path d="M404.157 372.269C408.422 367.754 412.812 363.359 417.327 359.094L458.142 399.924L458.582 400.349C493.942 435.414 520.982 429.589 566.902 429.974L566.842 448.709C527.997 448.854 504.462 452.489 468.692 432.649L467.777 432.154C453.962 423.214 444.937 413.254 433.437 401.759L432.327 400.579C422.862 391.219 413.472 381.784 404.157 372.269Z" fill="black"/>
<path d="M76.7624 194.951C117.268 194.876 155.069 190.966 187.513 219.992C201.505 232.511 214.522 246.645 227.971 259.739C231.888 263.632 235.736 267.592 239.514 271.619C235.293 275.862 230.757 280.613 226.456 284.706L211.468 269.763L210.738 268.802C207.939 266.943 188.699 247.315 185.652 243.897C154.224 208.649 120.041 213.599 76.6239 213.688C76.6159 207.442 76.6619 201.196 76.7624 194.951Z" fill="black"/>
<path d="M271.885 404.824C276.039 408.674 280.902 413.859 284.95 417.954L278.348 424.619L277.786 425.364L271.477 431.754L270.19 433.064C259.19 444.159 245.146 457.374 235.123 468.699C211.037 495.909 214.435 532.819 214.43 566.884L195.984 566.869C195.733 528.084 192.388 493.969 217.655 460.869C223.486 453.229 230.515 446.394 237.266 439.549L243.34 433.449L244.443 432.459L271.885 404.824Z" fill="black"/>
<path d="M416.797 76.6756C422.882 76.6386 428.967 76.6506 435.052 76.7111L435.042 111.416C435.067 132.086 435.322 148.934 427.907 168.829C420.997 187.367 412.682 196.743 399.747 210.7L399.072 211.257C390.197 220.165 380.772 230.027 371.757 238.664C367.222 234.439 362.792 230.108 358.462 225.674C363.097 221.008 367.847 216.037 372.547 211.482L373.412 210.694C374.322 209.33 380.677 203.082 382.077 201.717C387.782 196.159 392.472 191.538 397.487 185.314L398.137 184.711C407.112 172.532 414.572 155.97 415.847 140.809C417.617 119.779 416.447 97.7996 416.797 76.6756Z" fill="black"/>
<path d="M300.451 433.969C304.005 436.779 310.592 443.749 313.832 447.149L287.335 473.699L286.123 474.789C273.689 487.449 262.532 496.184 255.442 512.704L255.026 513.174C254.387 517.344 251.916 523.304 251.584 527.879C250.664 540.589 251.002 554.159 251.032 566.884L232.225 566.899C232.018 519.684 229.807 503.719 265.628 468.894L266.566 468.084C276.967 456.909 289.544 444.979 300.451 433.969Z" fill="black"/>
<path d="M380.637 76.7066C386.747 76.6886 393.022 76.5976 399.122 76.6766L399.247 109.565C399.227 122.036 398.962 132.919 395.397 145.077C387.222 172.952 361.922 189.441 343.332 210.23L342.802 210.369C339.002 206.264 333.732 201.604 329.562 197.255C338.862 188.155 348.127 178.682 357.327 169.457L358.212 168.83C358.852 167.931 364.792 161.604 365.952 160.21C374.617 149.832 377.782 141.376 380.122 128.312L380.207 126.884C380.902 110.11 379.922 92.7826 380.637 76.7066Z" fill="black"/>
<path d="M432.327 400.579L433.437 401.759C444.937 413.254 453.962 423.214 467.777 432.154L468.692 432.649C462.527 434.499 440.597 432.134 435.237 433.669C435.407 435.019 435.402 434.759 435.912 436.074C434.702 435.589 435.007 435.649 433.967 434.714C432.007 437.034 434.552 463.249 432.927 468.414C431.642 461.934 432.227 441.539 432.167 433.824C428.907 437.084 418.972 446.799 415.102 448.369L414.807 448.089C415.367 447.159 428.922 436.019 431.477 433.364C423.052 433.359 409.077 433.739 401.192 432.999C402.852 431.784 427.162 432.224 431.412 431.989C426.277 426.659 403.157 405.914 401.582 401.379C403.822 403.054 407.267 406.944 409.467 408.969C416.782 415.704 424.482 424.554 431.862 430.899C432.422 430.054 432.302 404.269 432.327 400.579Z" fill="white"/>
<path d="M432.327 400.579L433.437 401.759C433.137 411.454 433.352 421.934 433.372 431.684C437.032 427.519 441.972 421.564 445.762 417.734L445.947 418.129L446.457 417.239C448.207 416.164 434.452 431.694 433.902 432.254C441.732 432.244 461.142 432.804 467.777 432.154L468.692 432.649C462.527 434.499 440.597 432.134 435.237 433.669C435.407 435.019 435.402 434.759 435.912 436.074C434.702 435.589 435.007 435.649 433.967 434.714C432.007 437.034 434.552 463.249 432.927 468.414C431.642 461.934 432.227 441.539 432.167 433.824C428.907 437.084 418.972 446.799 415.102 448.369L414.807 448.089C415.367 447.159 428.922 436.019 431.477 433.364C423.052 433.359 409.077 433.739 401.192 432.999C402.852 431.784 427.162 432.224 431.412 431.989C426.277 426.659 403.157 405.914 401.582 401.379C403.822 403.054 407.267 406.944 409.467 408.969C416.782 415.704 424.482 424.554 431.862 430.899C432.422 430.054 432.302 404.269 432.327 400.579Z" fill="#B7B6B7"/>
<path d="M210.172 211.542C201.037 211.118 185.52 212.152 177.094 210.906C185.597 209.342 203.148 211.532 209.245 209.893C211.158 207.42 210.003 164.969 210.512 157.822C212.459 161.977 210.909 192.079 211.302 198.725C211.456 201.334 210.827 206.94 211.621 209.544L214.219 207.962C215.352 204.995 226.936 196.585 230.077 194.628L230.467 195.387C234.684 200.951 239.085 205.268 243.745 210.419L244.701 211.307C234.057 211.385 222.991 211.351 212.369 211.621C216.28 215.581 241.515 239.902 241.791 241.809C238.071 239.568 215.35 215.984 211.378 211.611C211.411 220.429 211.698 232.842 211.15 241.457L210.892 241.198C209.703 234.521 210.285 219.901 210.341 212.488C208.308 214.689 207.192 215.869 204.888 217.822C206.356 215.132 208.022 213.711 210.172 211.542Z" fill="white"/>
<path d="M210.172 211.542C201.037 211.118 185.52 212.152 177.094 210.906C185.597 209.342 203.148 211.532 209.245 209.893C211.158 207.42 210.003 164.969 210.512 157.822C212.459 161.977 210.909 192.079 211.302 198.725C211.456 201.334 210.827 206.94 211.621 209.544L214.219 207.962L212.723 210.366C213.237 210.625 240.624 210.36 243.745 210.419L244.701 211.307C234.057 211.385 222.991 211.351 212.369 211.621C216.28 215.581 241.515 239.902 241.791 241.809C238.071 239.568 215.35 215.984 211.378 211.611C211.411 220.429 211.698 232.842 211.15 241.457L210.892 241.198C209.703 234.521 210.285 219.901 210.341 212.488C208.308 214.689 207.192 215.869 204.888 217.822C206.356 215.132 208.022 213.711 210.172 211.542Z" fill="#B7B6B7"/>
<path d="M230.077 194.628L230.467 195.387C228.28 197.028 215.091 207.978 214.219 207.962C215.352 204.995 226.936 196.585 230.077 194.628Z" fill="#DEDDDD"/>
<path d="M432.297 210.546C432.222 197.153 432.172 173.311 432.392 159.063C432.592 158.828 432.797 158.592 432.997 158.356C433.557 160.931 433.207 168.347 433.322 171.457C433.762 183.18 432.677 197.544 433.467 209.03L434.312 209.223L434.152 210.174C436.567 211.334 463.177 209.619 468.987 210.794L467.842 211.482C459.732 216.861 454.977 220.675 447.917 227.685L447.167 228.454C442.457 222.914 438.072 217.754 433.187 212.329C433.282 218.216 434.112 237.092 432.537 241.398C431.962 234.791 433.307 216.187 430.997 212.151C429.272 210.905 403.352 211.356 399.072 211.257L399.747 210.7C401.787 210.796 406.637 210.47 408.997 210.441L431.152 210.336C427.662 206.93 423.852 203.502 420.287 200.121L420.227 199.754L419.622 199.213C424.672 202.978 428.012 205.948 432.297 210.546Z" fill="white"/>
<path d="M432.297 210.546C432.222 197.153 432.172 173.311 432.392 159.063C432.592 158.828 432.797 158.592 432.997 158.356C433.557 160.931 433.207 168.347 433.322 171.457C433.762 183.18 432.677 197.544 433.467 209.03L434.312 209.223L434.152 210.174C436.567 211.334 463.177 209.619 468.987 210.794L467.842 211.482C457.257 211.088 444.127 211.323 433.427 211.501C435.777 213.887 446.722 225.464 447.917 227.685L447.167 228.454C442.457 222.914 438.072 217.754 433.187 212.329C433.282 218.216 434.112 237.092 432.537 241.398C431.962 234.791 433.307 216.187 430.997 212.151C429.272 210.905 403.352 211.356 399.072 211.257L399.747 210.7C401.787 210.796 406.637 210.47 408.997 210.441L431.152 210.336C427.662 206.93 423.852 203.502 420.287 200.121L420.227 199.754L419.622 199.213C424.672 202.978 428.012 205.948 432.297 210.546Z" fill="#B7B6B7"/>
<path d="M465.002 178.027C477.772 164.532 492.017 151.184 505.062 137.844C507.837 135.007 523.112 119.644 525.662 117.944C521.687 122.895 509.902 134.107 504.942 139.059L465.882 178.041L465.977 178.643C468.057 180.126 471.992 185.22 473.817 187.376L473.567 187.819C471.842 186.402 465.492 179.621 464.612 179.663C457.347 185.849 449.732 194.707 442.662 201.336C440.442 203.422 436.597 207.842 434.312 209.223C436.317 206.18 442.452 200.389 445.242 197.599C451.607 191.184 458.027 184.819 464.497 178.505C461.857 175.965 458.692 173.121 456.552 170.217C459.107 172.237 462.972 175.53 465.002 178.027Z" fill="#A6A5A7"/>
<path d="M178.218 178.148C183.07 172.891 202.521 156.441 208.32 153.491L208.944 153.564C208.172 154.823 204.645 157.122 203.199 158.314C195.427 164.724 185.989 170.891 179.301 178.45C186.201 185.397 194.238 193.872 201.268 200.512C203.684 202.872 206.078 204.971 207.857 207.837C205.338 206.06 199.694 200.213 197.322 197.845L178.663 179.171C170.889 186.988 166.548 192.195 159.72 200.82L159.192 200.556C161.773 195.616 174.108 182.143 178.218 178.148Z" fill="#B7B6B7"/>
<path d="M178.143 464.829C179.915 465.309 183.603 469.844 184.91 471.409C182.398 470.069 180.421 467.889 178.38 465.889C174.868 470.454 161.707 482.899 157.305 487.169C146.468 497.714 135.722 508.349 125.067 519.074C123.637 520.554 119.992 524.574 118.2 525.019L118.618 524.934V524.354L118.927 524.704L118.89 524.004C123.416 518.714 129.757 513.099 134.696 508.004C148.85 493.399 164.14 479.544 178.143 464.829Z" fill="#DEDDDD"/>
<path d="M400.932 242.003C403.247 239.177 427.462 215.081 429.807 214.046C421.647 223.027 410.242 233.722 401.427 242.422C408.277 249.312 410.177 252.443 415.957 259.706L415.262 260.198C413.092 258.61 404.537 246.628 401.012 243.018C398.767 245.264 382.742 261.515 381.622 261.751C384.972 257.265 395.802 247.015 400.277 242.554C398.372 240.764 396.487 238.949 394.632 237.111L394.517 236.392L394.067 236.405C393.882 236.121 393.937 236.274 393.907 235.95L394.557 236.833L395.067 236.682C396.907 238.042 399.217 240.374 400.932 242.003Z" fill="#B7B6B7"/>
<path d="M465.227 465.619C469.672 466.699 515.487 516.039 522.762 522.094C523.697 522.874 524.872 524.619 525.322 525.824C505.842 507.104 484.102 485.024 465.227 465.619Z" fill="#B7B6B7"/>
<path d="M116.86 116.96C120.718 119.769 176.915 175.578 178.218 178.148C174.927 175.919 118.025 119.013 116.86 116.96Z" fill="#B7B6B7"/>
<path d="M433.092 326.894C434.172 329.669 433.152 339.074 432.902 342.684C433.152 344.229 432.852 343.539 433.937 344.779C432.177 348.194 434.287 368.394 432.832 372.949L432.392 372.914C431.917 367.564 432.237 348.034 432.737 342.909C429.202 351.509 430.742 355.224 425.682 364.639L425.392 364.694C428.027 357.634 434.547 334.224 432.182 327.944L433.092 326.894Z" fill="#A6A5A7"/>
<path d="M343.332 210.23C350.862 211.63 364.652 209.611 373.412 210.694L372.547 211.482C364.132 210.922 350.677 211.502 341.737 211.426C350.712 213.847 355.437 214.043 364.522 217.867C362.312 217.909 344.827 212.371 340.827 212.089C339.762 212.014 330.222 210.975 329.882 210.774C334.182 210.356 338.967 211.01 342.802 210.369L343.332 210.23Z" fill="#A6A5A7"/>
<path d="M381.042 381.719L380.927 381.074C383.007 382.039 398.262 397.909 401.147 400.814C402.887 398.899 412.812 387.009 413.687 386.649L413.612 386.619C410.887 391.229 405.567 397.859 401.582 401.379C397.272 405.649 390.587 411.949 385.152 414.639C385.162 414.644 385.172 414.649 385.187 414.659L386.067 414.334L386.092 413.624C391.197 409.494 395.792 405.849 400.427 401.204C394.132 394.889 387.127 388.149 381.042 381.719Z" fill="#B7B6B7"/>
<path d="M437.537 437.999C437.862 438.034 438.187 438.064 438.512 438.099C445.552 445.109 459.677 458.354 465.507 465.094C462.897 464.184 438.467 440.374 437.537 437.999Z" fill="#DEDDDD"/>
<path d="M375.952 321.334C384.127 321.309 404.842 320.734 412.212 321.529L411.167 322.464C403.432 321.784 384.557 322.339 375.942 322.354L375.952 321.334Z" fill="#B7B6B7"/>
<path d="M321.447 230.867L322.437 231.857C321.787 242.744 322.572 256.086 322.207 267.328L321.372 267.581C321.322 255.526 321.087 242.874 321.447 230.867Z" fill="#A6A5A7"/>
<path d="M205.883 437.259L206.306 438.024C198.285 445.954 190.309 453.929 182.381 461.954C181.796 461.414 182.011 461.769 181.894 460.809C188.616 453.674 198.688 444.044 205.883 437.259Z" fill="#DEDDDD"/>
<path d="M158.23 441.629C159.383 442.354 175.552 461.564 177.998 464.509C173.905 462.979 159.743 446.179 158.23 441.629Z" fill="#DEDDDD"/>
<path d="M463.927 466.234L464.087 466.854C463.137 470.004 445.952 482.924 442.172 485.639L442.082 485.144C442.492 483.939 461.172 468.779 463.927 466.234Z" fill="#DEDDDD"/>
<path d="M300.818 210.178L302.671 212.095C300.681 212.515 297.096 213.387 295.199 213.472C297.55 212.097 297.699 213.242 299.073 211.636C295.325 210.536 274.027 212.456 272.451 211.093C274.151 210.521 296.503 210.573 300.818 210.178Z" fill="#A6A5A7"/>
<path d="M432.127 269.754L433.237 268.622C433.282 278.169 433.167 288.399 433.397 297.894L433.202 298.327C432.337 297.633 432.492 296.355 432.282 294.87C432.292 286.911 432.527 277.598 432.127 269.754Z" fill="#A6A5A7"/>
<path d="M265.628 468.894C259.359 466.104 254.323 464.074 248.225 460.824L247.852 460.079L247.117 459.994C249.808 459.974 261.863 466.409 266.145 467.939L266.566 468.084L265.628 468.894Z" fill="#DEDDDD"/>
<path d="M265.754 175.177L266.448 175.887C263.066 177.902 254.208 180.819 250.486 183.199C249.242 183.995 249.46 183.974 247.879 184.554L247.376 184.092C251.494 180.455 260.428 177.735 265.754 175.177Z" fill="#DEDDDD"/>
<path d="M277.544 277.996L278.085 277.891C280.415 279.568 288.502 288.031 290.992 290.553C288.394 290.094 278.531 280.512 277.544 277.996Z" fill="#DEDDDD"/>
<path d="M458.142 399.924C461.157 393.919 464.072 387.859 466.882 381.754L467.552 381.659L467.267 381.089L467.577 380.959C466.112 386.299 461.567 395.664 458.582 400.349L458.142 399.924Z" fill="#B7B6B7"/>
<path d="M480.522 447.769C481.042 450.319 468.712 462.314 466.227 464.799L466.142 464.139C470.367 458.794 475.777 453.734 480.522 447.769Z" fill="#A6A5A7"/>
<path d="M437.107 155.452L438.017 155.357C444.322 159.666 450.337 164.391 456.012 169.501C453.852 168.827 440.262 157.844 437.107 155.452Z" fill="#A6A5A7"/>
<path d="M350.797 292.142C353.857 289.073 363.167 279.354 366.072 277.169C363.847 280.904 354.802 289.248 351.267 292.594L350.797 292.142Z" fill="#B7B6B7"/>
<path d="M245.56 132.473L245.879 134.463C241.194 136.239 235.156 139.674 230.602 140.654C234.271 138.226 240.909 135.742 244.994 133.69C245.182 133.284 245.371 132.878 245.56 132.473Z" fill="#B7B6B7"/>
<path d="M397.487 185.314C391.732 182.084 386.432 179.664 380.447 176.852L380.147 176.166L379.447 176.252L379.322 176.147L379.897 176.622L380.447 176.317C386.407 178.144 392.587 181.738 398.137 184.711L397.487 185.314Z" fill="#A6A5A7"/>
<path d="M458.332 245.088L459.117 245.013C461.987 249.598 464.272 254.568 466.317 259.57L465.667 259.497C463.097 254.843 460.707 249.86 458.332 245.088Z" fill="#B7B6B7"/>
<path d="M184.565 244.686C184.914 246.362 177.698 260.069 176.2 263.995C175.394 260.783 182.728 248.157 184.565 244.686Z" fill="#A6A5A7"/>
<path d="M496.807 221.052C499.382 222.612 504.542 233.399 505.522 236.474C503.882 235.263 498.137 223.588 496.807 221.052Z" fill="#B7B6B7"/>
<path d="M280.28 217.701C282.827 216.377 292.695 212.241 295.199 213.472C293.757 214.071 281.161 217.937 280.28 217.701Z" fill="#B7B6B7"/>
<path d="M137.429 236.675C139.532 234.099 143.584 225.95 145.811 222.54C145.16 224.527 139.769 234.45 138.452 236.99L137.429 236.675Z" fill="#A6A5A7"/>
<path d="M485.052 202.643C482.367 199.189 479.817 195.897 477.282 192.319L477.622 191.727C480.897 195.065 483.247 198.374 485.657 202.401L485.052 202.643Z" fill="#B7B6B7"/>
<path d="M221.47 497.699C225.208 498.344 227.127 499.734 230.007 502.144C227.075 501.489 223.729 499.644 221.47 497.699Z" fill="#DEDDDD"/>
<path d="M399.947 134.742C402.512 134.797 407.292 137.225 409.392 138.731L408.802 138.969C406.482 138.224 402.272 135.927 399.947 134.742Z" fill="#B7B6B7"/>
<path d="M197.978 226.314C198.778 224.332 202.944 218.897 204.888 217.822C204.423 219.583 199.452 224.965 197.978 226.314Z" fill="#A6A5A7"/>
<path d="M502.762 411.644L503.282 412.234C502.502 414.679 500.682 417.449 499.347 419.724L498.897 419.119C500.167 416.614 501.457 414.124 502.762 411.644Z" fill="#B7B6B7"/>
</g>
<defs>
<clipPath id="clip0_6_850">
<rect width="644" height="644" fill="white"/>
</clipPath>
</defs>
</svg>
